<?xml version="1.0" encoding="utf-8"?>
<!-- Generator: Adobe Illustrator 26.2.1, SVG Export Plug-In . SVG Version: 6.00 Build 0)  -->
<svg version="1.1" id="레이어_1" xmlns="http://www.w3.org/2000/svg" xmlns:xlink="http://www.w3.org/1999/xlink" x="0px"
	 y="0px" viewBox="0 0 512 512" style="enable-background:new 0 0 512 512;" xml:space="preserve">
<style type="text/css">
	.st0{fill-rule:evenodd;clip-rule:evenodd;}
</style>
<g>
	<path class="st0" d="M193.8,159.5c-1.6,5.8-2.5,11.9-2.5,18.2c0,18.2,7.4,34.7,19.3,46.7c11.9,11.9,28.5,19.3,46.7,19.3
		c18.2,0,34.6-7.3,46.5-19.1l0.2-0.2c12-11.9,19.3-28.5,19.3-46.7c0-4.8-0.5-9.5-1.5-14c-9,0-18-1.8-26.3-5.1
		c-8.6-3.4-16.5-8.4-23.2-14.7c-2.8,2.7-5.8,5.2-8.9,7.5c-11.9,8.4-26.5,13.4-42.3,13.4c-5.4,0-10.7-0.6-15.9-1.7
		C201.2,162.1,197.4,160.9,193.8,159.5 M281.9,116.4c-24.3-9.8-52.4-4.3-71.3,14.6c-6.1,6.2-11.1,13.5-14.4,21.7
		c3.4,1.4,6.9,2.5,10.6,3.3c4.6,1,9.4,1.6,14.3,1.6c14.2,0,27.4-4.5,38.1-12.1c4.9-3.5,9.3-7.6,13.1-12.2l1.3-2.2l0.1-0.3
		C276.4,126,279.9,120,281.9,116.4z M303.9,131c-4.5-4.5-9.6-8.3-15.2-11.4c-2.9,6.9-6.8,13.3-11.5,18.9
		c6.1,5.7,13.2,10.2,20.9,13.3c6.9,2.7,14.2,4.3,21.6,4.6c-2.7-7.5-7.2-15.4-12.8-22.2l-1.4-1.6C304.9,132,304.4,131.5,303.9,131z
		 M285.2,245.3c-8.6,3.6-18,5.5-27.9,5.5c-10.7,0-20.8-2.3-30-6.4v36.3l27.2,26.2l30.7-27.4V245.3z M208.5,276.5l-79.6,34.7v69.2
		h254.2v-69.2l-78.8-34.4l1.5,43.6c0.1,1.9-1.4,3.5-3.3,3.6l-92.8,0c-1.9,0-3.5-1.6-3.5-3.5L208.5,276.5z M252,314.2l-36.7-35.3
		l-2,38.2h85.5l-1.3-39.2l-40.6,36.3C255.5,315.5,253.3,315.5,252,314.2z"/>
	<path d="M170.9,74.4c-0.1,0-0.2,0-0.3,0H84.1c-0.1,0-0.2,0-0.3,0c-1.3,0-2.5,0.4-3.5,1.1c-2,1.1-3.3,3.1-3.3,5.5c0,0.1,0,0.2,0,0.3
		v86.5c0,0.1,0,0.2,0,0.3c0,3.5,2.8,6.3,6.3,6.3c3.5,0,6.3-2.8,6.3-6.3c0-0.1,0-0.2,0-0.3V86.9h81.2c0.1,0,0.2,0,0.3,0
		c3.5,0,6.3-2.8,6.3-6.3C177.2,77.2,174.4,74.4,170.9,74.4z"/>
	<path d="M170.9,436.3c-0.1,0-0.2,0-0.3,0H84.1c-0.1,0-0.2,0-0.3,0c-1.3,0-2.5-0.4-3.5-1.1c-2-1.1-3.3-3.1-3.3-5.5
		c0-0.1,0-0.2,0-0.3v-86.5c0-0.1,0-0.2,0-0.3c0-3.5,2.8-6.3,6.3-6.3c3.5,0,6.3,2.8,6.3,6.3c0,0.1,0,0.2,0,0.3v80.9h81.2
		c0.1,0,0.2,0,0.3,0c3.5,0,6.3,2.8,6.3,6.3C177.2,433.5,174.4,436.3,170.9,436.3z"/>
	<path d="M341.1,74.4c0.1,0,0.2,0,0.3,0h86.5c0.1,0,0.2,0,0.3,0c1.3,0,2.5,0.4,3.5,1.1c2,1.1,3.3,3.1,3.3,5.5c0,0.1,0,0.2,0,0.3
		v86.5c0,0.1,0,0.2,0,0.3c0,3.5-2.8,6.3-6.3,6.3c-3.5,0-6.3-2.8-6.3-6.3c0-0.1,0-0.2,0-0.3V86.9h-81.2c-0.1,0-0.2,0-0.3,0
		c-3.5,0-6.3-2.8-6.3-6.3C334.8,77.2,337.6,74.4,341.1,74.4z"/>
	<path d="M341.1,436.3c0.1,0,0.2,0,0.3,0h86.5c0.1,0,0.2,0,0.3,0c1.3,0,2.5-0.4,3.5-1.1c2-1.1,3.3-3.1,3.3-5.5c0-0.1,0-0.2,0-0.3
		v-86.5c0-0.1,0-0.2,0-0.3c0-3.5-2.8-6.3-6.3-6.3c-3.5,0-6.3,2.8-6.3,6.3c0,0.1,0,0.2,0,0.3v80.9h-81.2c-0.1,0-0.2,0-0.3,0
		c-3.5,0-6.3,2.8-6.3,6.3C334.8,433.5,337.6,436.3,341.1,436.3z"/>
</g>
</svg>
